<svg width="500" height="500" viewBox="40.6 245.4 412.834 410.258" fill="none" xmlns="http://www.w3.org/2000/svg">
  <path d="m310.1 647.258-9.1-56c-14.467 20.067-33.6 35.933-57.4 47.6-23.333 11.2-48.067 16.8-74.2 16.8-42.933 0-75.133-11.9-96.6-35.7-21.467-23.8-32.2-58.1-32.2-102.9v-239.4h139.3v222.6c0 15.867 3.967 28.7 11.9 38.5 8.4 9.333 20.067 14 35 14 17.267 0 31.267-5.6 42-16.8 10.733-11.2 16.1-24.967 16.1-41.3v-217h139.3v369.6H310.1Z" fill="#fff"/>
  <path d="m339.334 615-9.1-56c-14.467 20.067-33.6 35.933-57.4 47.6-23.333 11.2-48.067 16.8-74.2 16.8-42.933 0-75.133-11.9-96.6-35.7-21.467-23.8-32.2-58.1-32.2-102.9V245.4h139.3V468c0 15.867 3.967 28.7 11.9 38.5 8.4 9.333 20.067 14 35 14 17.267 0 31.267-5.6 42-16.8 10.733-11.2 16.1-24.967 16.1-41.3v-217h139.3V615h-114.1Z" fill="#75FFE5"/>
</svg>
